<svg xmlns="http://www.w3.org/2000/svg" xmlns:xlink="http://www.w3.org/1999/xlink" width="109.184" height="163.774" viewBox="0 0 109.184 163.774">
  <defs>
    <clipPath id="clip-path">
      <path id="Path_4" data-name="Path 4" d="M143.877,9.922A54.663,54.663,0,0,0,89.285,64.514c0,48.154,49.914,105.585,52.033,108.01a3.384,3.384,0,0,0,2.56,1.173,3.506,3.506,0,0,0,2.559-1.173c2.119-2.465,52.033-60.882,52.033-108.01A54.663,54.663,0,0,0,143.877,9.922Zm0,37.531a20.472,20.472,0,1,1-20.472,20.472A20.477,20.477,0,0,1,143.877,47.453Z" transform="translate(-89.285 -9.922)" fill="#fff"/>
    </clipPath>
  </defs>
  <g id="Group_12" data-name="Group 12" transform="translate(-125.583 -135)">
    <g id="Group_4" data-name="Group 4" transform="translate(125.584 135)">
      <path id="Path_6" data-name="Path 6" d="M143.877,9.922A54.663,54.663,0,0,0,89.285,64.514c0,48.154,49.914,105.585,52.033,108.01a3.384,3.384,0,0,0,2.56,1.173,3.506,3.506,0,0,0,2.559-1.173c2.119-2.465,52.033-60.882,52.033-108.01A54.663,54.663,0,0,0,143.877,9.922Zm9.45,103.114c11.3,0,8.475-31.242,8.475-19.94s-6.622-4.7-17.925-4.7-11.487,29.96-11.487,18.657S142.025,113.036,153.327,113.036Z" transform="translate(-89.285 -9.922)" fill="#fff"/>
      <g id="Group_3" data-name="Group 3" transform="translate(0 0)">
        <g id="Mask_Group_1" data-name="Mask Group 1" transform="translate(0 0)" clip-path="url(#clip-path)">
          <g id="Group_1" data-name="Group 1" transform="translate(0 0)">
            <g id="surface1">
              <path id="Path_1" data-name="Path 1" d="M143.877,9.922A54.663,54.663,0,0,0,89.285,64.514c0,48.154,49.914,105.585,52.033,108.01a3.384,3.384,0,0,0,2.56,1.173,3.506,3.506,0,0,0,2.559-1.173c2.119-2.465,52.033-60.882,52.033-108.01A54.663,54.663,0,0,0,143.877,9.922Zm0,37.531a20.472,20.472,0,1,1-20.472,20.472A20.477,20.477,0,0,1,143.877,47.453Z" transform="translate(-89.285 -9.922)" fill="#fff"/>
            </g>
            <g id="surface1-2" data-name="surface1" transform="translate(15.272 41.848)" opacity="0.36">
              <path id="Path_3" data-name="Path 3" d="M93.263.031a5.3,5.3,0,0,0-5.3,5.294,5.246,5.246,0,0,0,1.56,3.748l3.741,3.748-9.994,9.995L74.524,14.07a5.3,5.3,0,0,0-7.5,7.5l1.249,1.256L27.934,63.166a8.785,8.785,0,0,0-1.877,9.725l1.16,2.7c.324.759.69,1.491,1.07,2.209L24.545,81.54a5.3,5.3,0,0,0,0,7.5l1.249,1.249L8.518,107.561a1.769,1.769,0,0,0,2.5,2.506L28.293,92.783l1.249,1.249a5.3,5.3,0,0,0,7.5,0L40.779,90.3c.725.38,1.456.745,2.209,1.063l2.7,1.16a8.78,8.78,0,0,0,9.725-1.87L95.762,50.3l1.249,1.249a5.3,5.3,0,1,0,7.5-7.489l-8.745-8.752,9.994-9.994,3.748,3.748a5.3,5.3,0,1,0,7.5-7.5L97.011,1.577A5.23,5.23,0,0,0,93.263.031Zm0,3.527a1.783,1.783,0,0,1,1.256.518l19.989,19.989a1.779,1.779,0,0,1,0,2.5,1.814,1.814,0,0,1-2.506,0l-3.748-3.741L104.79,19.35,92.014,6.574a1.767,1.767,0,0,1,1.249-3.016Zm2.506,11.761,3.748,3.748,3.741,3.755-9.994,9.994-7.5-7.5Zm-24.993.732a1.767,1.767,0,0,1,1.249.518l8.745,8.745,12.493,12.5,8.745,8.738a1.769,1.769,0,0,1-2.5,2.506L69.527,19.074a1.767,1.767,0,0,1,1.249-3.023Zm0,9.263L93.263,47.808,52.92,88.152a5.287,5.287,0,0,1-5.839,1.125l-2.7-1.16A26.372,26.372,0,0,1,30.467,74.2l-1.16-2.7a5.278,5.278,0,0,1,1.118-5.839Zm0,5.736a1.763,1.763,0,0,0-1.249,3.016l2.5,2.492a1.764,1.764,0,0,0,2.5-2.492l-2.5-2.506A1.76,1.76,0,0,0,70.776,31.05ZM64.522,37.3a1.764,1.764,0,0,0-1.249,3.009l7.5,7.5a1.767,1.767,0,1,0,2.5-2.5l-7.5-7.5A1.754,1.754,0,0,0,64.522,37.3Zm-6.246,6.24a1.77,1.77,0,0,0-1.242,3.016l2.492,2.506a1.775,1.775,0,0,0,2.506,0,1.775,1.775,0,0,0,0-2.506L59.525,44.06A1.734,1.734,0,0,0,58.276,43.536Zm-6.24,6.246a1.771,1.771,0,0,0-1.249,3.023l7.489,7.5a1.769,1.769,0,0,0,2.506-2.5l-7.5-7.5A1.752,1.752,0,0,0,52.036,49.782ZM45.79,56.036a1.764,1.764,0,0,0-1.256,3.016l2.506,2.5a1.764,1.764,0,1,0,2.492-2.5l-2.492-2.506A1.772,1.772,0,0,0,45.79,56.036Zm-6.254,6.246A1.767,1.767,0,0,0,38.287,65.3l7.5,7.5a1.764,1.764,0,1,0,2.492-2.5l-7.489-7.5A1.783,1.783,0,0,0,39.536,62.282ZM33.29,68.529a1.767,1.767,0,0,0-1.242,3.016l2.492,2.5a1.769,1.769,0,0,0,2.506-2.5l-2.506-2.5A1.755,1.755,0,0,0,33.29,68.529ZM30.177,80.912a29.982,29.982,0,0,0,7.5,7.5l-3.134,3.134a1.81,1.81,0,0,1-2.492,0l-5-5a1.758,1.758,0,0,1,0-2.506Z" transform="translate(-8 -0.031)" fill="#0f7375"/>
            </g>
          </g>
        </g>
        <path id="Path_5" data-name="Path 5" d="M27.1,7.879a8.173,8.173,0,0,0-8.129,8.129v5.42h5.42v-5.42A2.674,2.674,0,0,1,27.1,13.3H43.357a2.674,2.674,0,0,1,2.708,2.71v5.42h5.419v-5.42a8.172,8.172,0,0,0-8.128-8.129ZM8.129,24.138A8.131,8.131,0,0,0,0,32.267V64.783a8.131,8.131,0,0,0,8.129,8.129H62.324a8.131,8.131,0,0,0,8.129-8.129V32.267a8.131,8.131,0,0,0-8.129-8.129Zm27.1,7.875A16.512,16.512,0,1,1,18.715,48.526,16.5,16.5,0,0,1,35.227,32.013ZM32.517,40.4v5.42H27.1v5.418h5.42v5.419h5.42V51.234h5.42V45.816h-5.42V40.4Z" transform="translate(19.26 8.974)" fill="#0f7375"/>
      </g>
    </g>
  </g>
</svg>
